Coordinates
version=1
nRows=32
nColumns=18
inDegrees=yes

Units are S.I. units (second, meters, Newtons, ...)
If the header above contains a line with 'inDegrees', this indicates whether rotational values are in degrees (yes) or radians (no).

endheader
time	ground_thorax_rot_x	ground_thorax_rot_y	ground_thorax_rot_z	ground_thorax_tx	ground_thorax_ty	ground_thorax_tz	clav_prot	clav_elev	scapula_abduction	scapula_elevation	scapula_upward_rot	scapula_winging	plane_elv	shoulder_elv	axial_rot	elbow_flexion	pro_sup
      1.98000000	     -0.52119551	    -10.18806368	    -12.35026022	      0.00000000	      0.00000000	      0.00000000	    -24.57459102	      3.99629556	     10.93143751	     -4.72322559	     52.67400980	     -4.98126424	     61.33799891	     71.54797398	    -26.09544460	      0.00000000	     34.32000000
      1.99000000	     -0.35985378	    -10.22921250	    -12.60494124	      0.00000000	      0.00000000	      0.00000000	    -24.84462852	      4.08824562	     10.97615836	     -4.71181684	     53.32927021	     -5.07267493	     60.99113571	     71.87067923	    -25.96757574	      0.00000000	     34.32000000
      2.00000000	     -0.62797285	    -10.00250616	    -12.83717028	      0.00000000	      0.00000000	      0.00000000	    -25.15511199	      3.82228948	     10.60197681	     -4.92476199	     53.46650770	     -5.02418498	     60.91648180	     72.17610360	    -22.94618294	      0.00000000	     34.32000000
      2.01000000	     -0.76293657	     -9.93815785	    -12.59329738	      0.00000000	      0.00000000	      0.00000000	    -25.25785865	      4.04124971	     10.47016211	     -4.78386290	     53.58940900	     -5.10361517	     60.58248503	     72.36325740	    -22.98456153	      0.00000000	     34.32000000
      2.02000000	     -0.17752294	    -10.00628170	    -12.51139446	      0.00000000	      0.00000000	      0.00000000	    -25.57920765	      4.86464475	     10.53886760	     -4.27721070	     54.59128697	     -5.42697248	     60.26540419	     72.47199993	    -24.48985083	      0.00000000	     34.32000000
      2.03000000	     -0.44029287	     -9.74599273	    -12.70296282	      0.00000000	      0.00000000	      0.00000000	    -25.83309393	      4.47938811	     10.27550672	     -4.56775532	     54.70447285	     -5.34975870	     59.93941376	     72.84004133	    -21.89389775	      0.00000000	     34.32000000
      2.04000000	     -0.31321968	    -10.06309263	    -12.58933115	      0.00000000	      0.00000000	      0.00000000	    -25.74697781	      4.77005932	     10.88127114	     -4.38654771	     55.32721840	     -5.46258529	     59.19151722	     73.00976600	    -24.52340125	      0.00000000	     34.32000000
      2.05000000	     -0.55700918	    -10.19134272	    -12.41716541	      0.00000000	      0.00000000	      0.00000000	    -25.81488355	      4.77929653	     10.86015516	     -4.38948227	     55.44837342	     -5.47798730	     59.13752970	     73.26919508	    -24.52208996	      0.00000000	     34.32000000
      2.06000000	     -0.49633376	    -10.36032686	    -12.69725481	      0.00000000	      0.00000000	      0.00000000	    -26.03422928	      4.76670540	     10.96784886	     -4.43555790	     56.03732938	     -5.52797801	     58.85357500	     73.81018788	    -25.00277618	      0.00000000	     34.32000000
      2.07000000	     -0.47768084	    -10.40592877	    -12.76283366	      0.00000000	      0.00000000	      0.00000000	    -26.27451321	      4.92147926	     10.82877425	     -4.35698569	     56.42444367	     -5.61433103	     58.81067228	     74.18444853	    -24.84812026	      0.00000000	     34.32000000
      2.08000000	     -0.46705267	    -10.40397054	    -12.73134375	      0.00000000	      0.00000000	      0.00000000	    -26.41605235	      5.10031696	     10.75131390	     -4.25024346	     56.68269758	     -5.69107381	     58.66690075	     74.46728229	    -24.03543848	      0.00000000	     34.32000000
      2.09000000	     -0.56057117	    -10.36039777	    -12.70540527	      0.00000000	      0.00000000	      0.00000000	    -26.52653161	      5.14307648	     10.68835672	     -4.23324884	     56.85368785	     -5.72256677	     58.34592335	     74.90317874	    -24.04369041	      0.00000000	     34.32000000
      2.10000000	     -0.83679576	    -10.13430098	    -13.02530936	      0.00000000	      0.00000000	      0.00000000	    -26.88774536	      4.64584487	     10.29335451	     -4.60844371	     57.00609088	     -5.63324906	     58.21450603	     75.52514435	    -21.96507869	      0.00000000	     34.32000000
      2.11000000	     -0.92836985	    -10.18137051	    -12.88202300	      0.00000000	      0.00000000	      0.00000000	    -26.95837617	      4.80571108	     10.28787767	     -4.50729334	     57.19420045	     -5.69550561	     57.87302190	     75.68391974	    -22.05873689	      0.00000000	     34.32000000
      2.12000000	     -0.52626574	    -10.57828064	    -12.80032588	      0.00000000	      0.00000000	      0.00000000	    -26.97728231	      5.42302965	     10.80859504	     -4.10209677	     58.02741408	     -5.90110417	     57.45518029	     75.60603434	    -23.19293784	      0.00000000	     34.32000000
      2.13000000	     -0.87884351	    -10.36984099	    -12.98543176	      0.00000000	      0.00000000	      0.00000000	    -27.13578044	      5.06966973	     10.37664036	     -4.35119222	     57.74905303	     -5.81481773	     57.64475421	     76.26232237	    -20.93014480	      0.00000000	     34.32000000
      2.14000000	     -1.05728105	    -10.38513815	    -12.81006516	      0.00000000	      0.00000000	      0.00000000	    -27.19146453	      5.10774270	     10.35840883	     -4.33109490	     57.85604006	     -5.83660847	     57.57699569	     76.42606518	    -20.93570764	      0.00000000	     34.32000000
      2.15000000	     -0.73670557	    -10.27772792	    -12.98587624	      0.00000000	      0.00000000	      0.00000000	    -27.63473123	      5.17638949	     10.33943550	     -4.33501622	     58.78794451	     -5.94911751	     57.12557029	     76.42710204	    -20.84496160	      0.00000000	     34.32000000
      2.16000000	     -0.77404416	    -10.46810874	    -13.03200935	      0.00000000	      0.00000000	      0.00000000	    -27.55354169	      5.06402267	     10.79773298	     -4.41487440	     59.12863061	     -5.91632679	     56.46126199	     76.68746515	    -21.16012626	      0.00000000	     34.32000000
      2.17000000	     -1.14975425	    -10.19687237	    -13.21140651	      0.00000000	      0.00000000	      0.00000000	    -27.83576126	      4.58752053	     10.37719209	     -4.76478093	     59.09159673	     -5.81907157	     56.31027471	     77.22876801	    -20.04172457	      0.00000000	     34.32000000
      2.18000000	     -1.37790254	    -10.28827858	    -13.06790531	      0.00000000	      0.00000000	      0.00000000	    -27.88421366	      4.63060911	     10.37939128	     -4.74012747	     59.20845435	     -5.84184002	     56.30334739	     77.43337112	    -20.05273503	      0.00000000	     34.32000000
      2.19000000	     -1.17256958	    -10.13284240	    -13.43106736	      0.00000000	      0.00000000	      0.00000000	    -28.35322263	      4.49655233	     10.17787593	     -4.87659688	     59.92097722	     -5.89151472	     56.26912748	     77.75601546	    -18.37073391	      0.00000000	     34.32000000
      2.20000000	     -0.71409334	    -10.74384076	    -13.00501297	      0.00000000	      0.00000000	      0.00000000	    -28.00077573	      5.26318308	     11.13533411	     -4.32707774	     60.52728793	     -6.06892813	     55.82106836	     77.74798288	    -21.21566926	      0.00000000	     34.32000000
      2.21000000	     -0.82966498	    -10.74062046	    -12.84122380	      0.00000000	      0.00000000	      0.00000000	    -28.04442992	      5.24894321	     11.12621987	     -4.34075504	     60.60430799	     -6.07294238	     55.77463049	     77.90798151	    -21.21971791	      0.00000000	     34.32000000
      2.22000000	     -1.02254876	    -10.31932224	    -13.20153260	      0.00000000	      0.00000000	      0.00000000	    -28.57979314	      4.73426363	     10.53042159	     -4.73744361	     60.88414162	     -6.01622020	     55.72498368	     78.51341930	    -20.53996680	      0.00000000	     34.32000000
      2.23000000	     -0.70944205	    -10.54745944	    -12.97928664	      0.00000000	      0.00000000	      0.00000000	    -28.70757710	      5.33923618	     10.74964603	     -4.33001684	     61.58041974	     -6.21972842	     55.58304364	     78.72228228	    -21.84214429	      0.00000000	     34.32000000
      2.24000000	     -0.97584200	    -10.25415603	    -13.19775313	      0.00000000	      0.00000000	      0.00000000	    -29.10835519	      5.03733495	     10.22561535	     -4.56775825	     61.71937969	     -6.20741085	     55.53855172	     79.29322722	    -20.72980247	      0.00000000	     34.32000000
      2.25000000	     -1.11072840	    -10.03934166	    -13.29107297	      0.00000000	      0.00000000	      0.00000000	    -29.43688602	      4.96769095	      9.83257867	     -4.63937679	     61.92481143	     -6.25117682	     55.38436103	     79.64877937	    -19.72956835	      0.00000000	     34.32000000
      2.26000000	     -1.14226271	    -10.09683691	    -13.08400788	      0.00000000	      0.00000000	      0.00000000	    -29.44919394	      5.24267002	      9.88995871	     -4.44948140	     62.09543292	     -6.33460974	     54.99476054	     79.81479382	    -19.85121061	      0.00000000	     34.32000000
      2.27000000	     -1.01527978	    -10.19942955	    -13.01492104	      0.00000000	      0.00000000	      0.00000000	    -29.51402714	      5.34152604	     10.03203750	     -4.38550907	     62.42827917	     -6.37594617	     54.61283922	     80.03018674	    -19.99468654	      0.00000000	     34.32000000
      2.28000000	     -0.70457418	    -10.65443319	    -12.98914808	      0.00000000	      0.00000000	      0.00000000	    -29.44567752	      5.63203941	     10.74474152	     -4.17694808	     63.21025011	     -6.44106266	     53.92666268	     79.89082982	    -21.12552243	      0.00000000	     34.32000000
      2.29000000	     -0.79102377	    -10.61691701	    -12.91198153	      0.00000000	      0.00000000	      0.00000000	    -29.55208940	      5.64676127	     10.66570468	     -4.17330198	     63.34466320	     -6.46526441	     53.64752715	     80.20935488	    -21.15858434	      0.00000000	     34.32000000
